<svg width="87" height="55" viewBox="0 0 87 55" fill="none" xmlns="http://www.w3.org/2000/svg">
<path d="M80.8392 45.6366V54.8325H86.9136V53.6112H82.1338V50.7323H86.8222V49.511H82.1338V46.8553H86.9136V45.634L80.8392 45.6366Z" fill="#BA160A"/>
<path d="M0 45.6366V54.8325H1.29518V45.6366H0Z" fill="#BA160A"/>
<path d="M22.1641 50.3357C21.8864 50.1248 21.5784 49.9564 21.2504 49.8361C20.9321 49.7177 20.6028 49.6083 20.2716 49.5117L19.3186 49.2334C19.0464 49.1554 18.7813 49.0548 18.526 48.9327C18.3331 48.8435 18.162 48.7136 18.0247 48.5521C17.9118 48.4045 17.855 48.2221 17.8643 48.0371C17.8619 47.8588 17.9047 47.6828 17.9886 47.5253C18.0768 47.3618 18.1989 47.2187 18.3469 47.1056C18.5146 46.978 18.704 46.8816 18.9062 46.8209C19.1396 46.75 19.3826 46.7151 19.6266 46.7173C20.065 46.7135 20.5 46.7948 20.907 46.9565C21.2988 47.1188 21.643 47.3767 21.9077 47.7063L22.1106 47.9526L22.9831 46.993L22.8278 46.8107C22.4652 46.3868 22.0081 46.0527 21.4927 45.835C20.9136 45.5987 20.2919 45.4828 19.6659 45.4947C19.262 45.4927 18.8601 45.5516 18.4739 45.6693C18.1135 45.7778 17.7752 45.9484 17.4745 46.1734C17.1856 46.3918 16.9494 46.6713 16.7831 46.9917C16.6119 47.3288 16.5253 47.7019 16.5305 48.0793C16.5051 48.5748 16.6658 49.0619 16.9815 49.4465C17.2757 49.7732 17.6372 50.0333 18.0415 50.2091C18.4632 50.3948 18.9013 50.5413 19.3502 50.6467C19.7659 50.7447 20.1748 50.8691 20.5745 51.019C20.8973 51.1351 21.1952 51.3104 21.4527 51.5359C21.5561 51.6376 21.6361 51.7603 21.6872 51.8956C21.7383 52.0309 21.7591 52.1755 21.7485 52.3196C21.7456 52.4863 21.7154 52.6514 21.659 52.8084C21.5968 52.9797 21.4935 53.1335 21.358 53.2562C21.1787 53.416 20.97 53.5398 20.7433 53.6209C20.4205 53.7308 20.0804 53.7817 19.7394 53.7713C19.4687 53.7734 19.1989 53.7396 18.9372 53.6708C18.6959 53.6063 18.4619 53.5175 18.2387 53.406C18.0358 53.3045 17.8449 53.1809 17.6697 53.0374C17.5088 52.9047 17.3581 52.7604 17.2187 52.6056L17.0092 52.3715L16.1716 53.3407L16.3191 53.5185C16.7013 53.9657 17.1757 54.3261 17.7103 54.5754C18.3389 54.8642 19.0256 55.0066 19.7181 54.9919C20.2513 55.0052 20.7826 54.9222 21.2859 54.7469C21.6779 54.6061 22.0366 54.387 22.3401 54.1033C22.6021 53.854 22.8018 53.5472 22.9231 53.2076C23.0299 52.9062 23.0857 52.5893 23.0882 52.2697C23.0993 51.8719 23.0107 51.4775 22.8304 51.122C22.6668 50.8161 22.4397 50.5481 22.1641 50.3357Z" fill="#BA160A"/>
<path d="M11.4774 45.6365V52.4065L6.43329 45.6365H5.26117V54.8325H6.55635V47.9646L11.6262 54.8325H12.7725V45.6365H11.4774Z" fill="#BA160A"/>
<path d="M65.104 45.6365V52.4065L60.0599 45.6365H58.8884V54.8325H60.1836V47.9646L65.2535 54.8325H66.3998V45.6365H65.104Z" fill="#BA160A"/>
<path d="M42.2334 51.1501C42.418 51.1152 42.5988 51.0629 42.7734 50.994C43.0928 50.8702 43.3848 50.6857 43.6329 50.4508C43.8851 50.206 44.0842 49.9125 44.218 49.5884C44.5105 48.8413 44.508 48.0121 44.2109 47.2667C44.0678 46.9302 43.8533 46.6282 43.5821 46.3813C43.3104 46.138 42.9934 45.9498 42.649 45.8273C42.2835 45.6976 41.8979 45.6326 41.5097 45.6353H37.9825V54.8313H39.2777V51.2524H40.7758L43.2179 54.8313H44.7895L42.2334 51.1501ZM39.2777 50.0324V46.8579H41.4441C41.6801 46.8552 41.9146 46.8953 42.1361 46.9763C42.3294 47.0466 42.5062 47.1554 42.6555 47.2962C42.7989 47.436 42.9106 47.6046 42.9834 47.7907C43.1399 48.2081 43.1399 48.6675 42.9834 49.0849C42.9081 49.2718 42.7955 49.4415 42.6522 49.5839C42.5055 49.7278 42.3298 49.8392 42.1367 49.9109C41.9155 49.9919 41.6811 50.032 41.4453 50.0292L39.2777 50.0324Z" fill="#BA160A"/>
<path d="M52.1535 45.6365H50.8563L47.0662 54.8325H48.5244L49.3866 52.7059H53.6239L54.4861 54.8325H55.9443L52.1535 45.6365ZM49.857 51.4846L51.5104 47.4317L53.1535 51.4846H49.857Z" fill="#BA160A"/>
<path d="M76.5637 52.4175L76.4142 52.6216C76.1537 52.9727 75.8132 53.2577 75.4206 53.4533C75.0091 53.6623 74.5529 53.7698 74.0907 53.7668C73.637 53.771 73.1872 53.684 72.7684 53.5109C72.3702 53.3436 72.0103 53.0979 71.7104 52.7886C71.4027 52.467 71.1605 52.0895 70.9971 51.6767C70.8196 51.2193 70.7321 50.7324 70.7393 50.2423C70.7334 49.7496 70.8219 49.2602 71.0003 48.8003C71.1605 48.3875 71.4014 48.0103 71.7091 47.6903C72.0108 47.3836 72.3712 47.1398 72.7691 46.9731C73.1878 46.8 73.6377 46.7129 74.0913 46.7172C74.5535 46.7141 75.0097 46.8216 75.4212 47.0307C75.8138 47.2263 76.1543 47.5113 76.4149 47.8624L76.5682 48.0716L77.6637 47.3679L77.4794 47.1324C77.0944 46.6397 76.6077 46.2344 76.0521 45.9438C75.4445 45.6369 74.7702 45.4831 74.0887 45.4959C73.4607 45.4916 72.8379 45.6085 72.2549 45.8401C71.6913 46.0631 71.1794 46.3978 70.7505 46.8237C70.3215 47.2495 69.9845 47.7578 69.7599 48.3173C69.2798 49.5568 69.2798 50.9291 69.7599 52.1686C69.9846 52.7282 70.3218 53.2364 70.7509 53.6623C71.1799 54.0882 71.6919 54.4228 72.2555 54.6458C72.8385 54.8775 73.4614 54.9944 74.0894 54.99C74.7676 55.0043 75.4386 54.8503 76.0418 54.5422C76.5987 54.2419 77.0905 53.8356 77.4891 53.3464L77.6888 53.104L76.5637 52.4175Z" fill="#BA160A"/>
<path d="M32.7086 45.6365V51.2261C32.7511 51.9073 32.5362 52.5798 32.1061 53.1121C31.6182 53.5342 30.9931 53.7667 30.346 53.7667C29.699 53.7667 29.0738 53.5342 28.5859 53.1121C28.1557 52.5798 27.9409 51.9073 27.9835 51.2261V45.6365H26.6754V51.2396C26.6684 51.7603 26.7459 52.2787 26.9048 52.775C27.0489 53.2197 27.2911 53.6268 27.6136 53.9669C27.9398 54.301 28.3356 54.5603 28.7734 54.7263C29.2754 54.911 29.8078 55.001 30.3431 54.9918C30.8476 55.0258 31.3535 54.952 31.8268 54.7755C32.3001 54.5989 32.7298 54.3236 33.0869 53.9681C33.7333 53.2096 34.0648 52.2352 34.0141 51.2428V45.6397L32.7086 45.6365Z" fill="#BA160A"/>
<path d="M86.9136 38.2423H0V0H86.9136V38.2423ZM50.3975 7.0496C48.3308 7.04948 46.2987 7.57997 44.4958 8.59024C42.6929 9.60052 41.1795 11.0568 40.1006 12.8195C39.0218 14.5822 38.4136 16.5924 38.3342 18.6576C38.2548 20.7228 38.707 22.7737 39.6474 24.614C40.5878 26.4544 41.9849 28.0225 43.705 29.1681C45.4251 30.3138 47.4105 30.9987 49.4711 31.1572C51.5317 31.3156 53.5985 30.9424 55.4735 30.0733C57.3485 29.2042 58.969 27.8682 60.1798 26.1933C60.2151 26.1446 60.2402 26.0894 60.2536 26.0308C60.2669 25.9721 60.2683 25.9114 60.2577 25.8523C60.247 25.7931 60.2245 25.7367 60.1915 25.6865C60.1585 25.6363 60.1157 25.5932 60.0656 25.5599L56.7858 23.3703C56.7135 23.3219 56.6285 23.296 56.5415 23.2959C56.4676 23.2959 56.3948 23.3143 56.3297 23.3492C56.2646 23.3842 56.2092 23.4348 56.1684 23.4964C55.534 24.4547 54.6835 25.2507 53.6853 25.8202C52.675 26.3904 51.535 26.6908 50.3749 26.6926C49.4291 26.6896 48.4942 26.4903 47.6293 26.1075C46.7645 25.7247 45.9884 25.1665 45.3503 24.4684C44.0111 23.0007 43.2687 21.0855 43.2687 19.0986C43.2687 17.1117 44.0111 15.1965 45.3503 13.7287C45.989 13.0322 46.7651 12.4757 47.6297 12.0942C48.4943 11.7128 49.4286 11.5147 50.3736 11.5125C51.5336 11.5143 52.6737 11.8147 53.6839 12.3849C54.6821 12.9544 55.5327 13.7504 56.167 14.7087C56.2078 14.7703 56.2633 14.8209 56.3284 14.8559C56.3935 14.8909 56.4662 14.9092 56.5402 14.9092C56.6272 14.9091 56.7122 14.8832 56.7845 14.8348L60.0497 12.6598C60.0999 12.6265 60.1429 12.5834 60.176 12.533C60.2092 12.4827 60.2317 12.4262 60.2424 12.3668C60.2531 12.3075 60.2516 12.2467 60.2381 12.1879C60.2246 12.1292 60.1994 12.0738 60.1639 12.0251C59.0417 10.4864 57.5725 9.23408 55.8756 8.3696C54.1787 7.50512 52.3019 7.05288 50.3975 7.0496ZM63.4105 7.44795C63.2924 7.4483 63.1793 7.49547 63.0959 7.5791C63.0125 7.66273 62.9657 7.77601 62.9657 7.89411V30.3455C62.966 30.4634 63.013 30.5763 63.0963 30.6597C63.1797 30.743 63.2926 30.79 63.4105 30.7904H67.4844C67.6022 30.79 67.7152 30.743 67.7985 30.6597C67.8819 30.5763 67.9288 30.4634 67.9292 30.3455V21.8565C67.9292 21.7384 67.976 21.6252 68.0594 21.5415C68.1428 21.4579 68.2559 21.4107 68.374 21.4104H76.3066C76.4247 21.41 76.5379 21.3629 76.6213 21.2792C76.7047 21.1956 76.7515 21.0823 76.7515 20.9642V17.3617C76.7515 17.2436 76.7047 17.1304 76.6213 17.0467C76.5379 16.9631 76.4247 16.9159 76.3066 16.9156H68.3754C68.2575 16.9152 68.1445 16.8682 68.0612 16.7849C67.9779 16.7016 67.9309 16.5886 67.9305 16.4707V12.3929C67.9316 12.2755 67.9789 12.1632 68.0621 12.0804C68.1454 11.9977 68.2579 11.9511 68.3754 11.9507H79.0208C79.1389 11.9504 79.252 11.9032 79.3354 11.8196C79.4188 11.7359 79.4656 11.6227 79.4656 11.5046V7.89677C79.4656 7.77867 79.4188 7.66539 79.3354 7.58175C79.252 7.49812 79.1389 7.45096 79.0208 7.45061L63.4105 7.44795ZM22.9826 16.3844C23.0796 16.3829 23.1743 16.4138 23.2518 16.4723C23.3293 16.5307 23.385 16.6134 23.4101 16.7071L27.3857 30.469C27.4129 30.5615 27.4692 30.6427 27.5462 30.7006C27.6233 30.7585 27.7169 30.79 27.8133 30.7904H31.6349C31.7315 30.7901 31.8254 30.7585 31.9025 30.7003C31.9796 30.6421 32.0357 30.5605 32.0624 30.4677L38.4933 8.02026C38.5124 7.95399 38.5159 7.88417 38.5034 7.81632C38.4909 7.74848 38.4628 7.68446 38.4214 7.62934C38.3799 7.57421 38.3262 7.52949 38.2644 7.4987C38.2027 7.46791 38.1347 7.4519 38.0657 7.45194H34.0489C33.9508 7.45209 33.8555 7.48457 33.7778 7.54434C33.7 7.6041 33.6441 7.68783 33.6187 7.78257L30.0481 21.1621C30.0233 21.2563 29.9682 21.3398 29.8914 21.3997C29.8145 21.4596 29.7202 21.4926 29.6227 21.4936C29.5253 21.4947 29.4302 21.4637 29.3521 21.4055C29.274 21.3473 29.2171 21.265 29.1903 21.1714L25.3209 7.77328C25.2937 7.68082 25.2375 7.5996 25.1604 7.5417C25.0834 7.4838 24.9897 7.45232 24.8933 7.45194H21.0718C20.9755 7.45253 20.8819 7.48409 20.8049 7.54196C20.7279 7.59983 20.6716 7.68093 20.6442 7.77328L16.7748 21.17C16.748 21.2637 16.6911 21.346 16.613 21.4042C16.5349 21.4624 16.4398 21.4934 16.3424 21.4923C16.245 21.4912 16.1506 21.4582 16.0737 21.3983C15.9969 21.3384 15.9418 21.255 15.917 21.1607L12.3491 7.78257C12.3237 7.68783 12.2678 7.6041 12.19 7.54434C12.1122 7.48457 12.0169 7.45209 11.9188 7.45194H7.89278C7.8238 7.4519 7.75575 7.46791 7.69402 7.4987C7.63229 7.52949 7.57857 7.57421 7.53709 7.62934C7.49562 7.68446 7.46754 7.74848 7.45506 7.81632C7.44259 7.88417 7.44606 7.95399 7.46521 8.02026L13.9027 30.4677C13.9294 30.5605 13.9855 30.6421 14.0626 30.7003C14.1397 30.7585 14.2336 30.7901 14.3302 30.7904H18.1518C18.2482 30.79 18.3418 30.7585 18.4189 30.7006C18.4959 30.6427 18.5522 30.5615 18.5794 30.469L22.555 16.7058C22.5806 16.6124 22.6365 16.5302 22.7138 16.472C22.7912 16.4139 22.8858 16.383 22.9826 16.3844Z" fill="#BA160A"/>
</svg>
